<svg id="visual" viewBox="0 0 900 600" width="900" height="600" xmlns="http://www.w3.org/2000/svg" xmlns:xlink="http://www.w3.org/1999/xlink" version="1.1"><g transform="translate(443.93151518504453 357.2492596305908)"><path d="M199 -239.3C251 -193.5 281.6 -124.3 265.2 -68.8C248.7 -13.3 185.3 28.5 147.2 76.1C109.1 123.6 96.5 176.9 66.2 192.5C36 208 -11.7 185.7 -79.7 178.5C-147.6 171.3 -235.8 179.2 -253.8 147C-271.7 114.8 -219.6 42.7 -205.8 -36.4C-192 -115.4 -216.5 -201.4 -188.6 -251.4C-160.7 -301.5 -80.3 -315.8 -3.4 -311.7C73.5 -307.6 147 -285.2 199 -239.3" fill="#CCCCCC"></path></g></svg>